<?xml version="1.0" standalone="no"?>
<!DOCTYPE svg PUBLIC "-//W3C//DTD SVG 20010904//EN"
 "http://www.w3.org/TR/2001/REC-SVG-20010904/DTD/svg10.dtd">
<svg version="1.0" xmlns="http://www.w3.org/2000/svg"
 width="1000.000000pt" height="1000.000000pt" viewBox="0 0 1000.000000 1000.000000"
 preserveAspectRatio="xMidYMid meet">
<metadata>
Created by potrace 1.14, written by Peter Selinger 2001-2017
</metadata>
<g transform="translate(0.000000,1000.000000) scale(0.100000,-0.100000)"
fill="#000000" stroke="none">
<path d="M0 5000 l0 -5000 5000 0 5000 0 0 5000 0 5000 -5000 0 -5000 0 0
-5000z m8850 2510 c0 -1098 -3 -1405 -12 -1427 -7 -15 -31 -43 -52 -63 -21
-19 -725 -502 -1565 -1072 -1199 -816 -1528 -1035 -1537 -1025 -6 6 -168 242
-359 522 -191 281 -349 511 -350 513 -4 4 -941 -730 -946 -740 -2 -4 273 -405
611 -891 l614 -884 201 132 c110 72 908 600 1773 1173 1236 818 1580 1042
1604 1042 l31 0 -6 -1762 c-3 -1192 -8 -1772 -16 -1790 -7 -19 -21 -30 -48
-37 -54 -15 -7653 -15 -7686 0 -12 6 -30 20 -38 32 -12 19 -14 526 -17 3817
-2 2762 1 3802 9 3822 6 15 21 29 32 31 12 2 1762 5 3890 6 l3867 1 0 -1400z"/>
</g>
</svg>
